<svg role="img" viewBox="0 0 42 32" class="roc-icon roc-header-logo__svg" aria-labelledby="logo-title" focusable="false">
    <title id="logo-title">MARS</title>
			<path fill="#fefefe" style="fill: var(--color1, #fefefe)" d="M37.246 2.686c0.455 0.072 0.771 0.247 0.967 0.495 1.493 1.89-5.465 8.806-5.465 8.806s0.446 0.108 0.53 0.091c0.084-0.017 7.142-6.884 5.294-9.158-0.258-0.355-0.681-0.582-1.257-0.673-0.868-0.138-2.089 0.035-3.567 0.472 0.077 0.131 0.15 0.264 0.217 0.401 1.368-0.4 2.491-0.559 3.281-0.434z"></path>
			<path fill="#fefefe" style="fill: var(--color1, #fefefe)" d="M17.046 12.377c2.406-1.747 4.843-3.337 7.169-4.702-0.062-0.139-0.119-0.28-0.169-0.425-2.344 1.376-4.807 2.985-7.261 4.768-0.839 0.609-2.316 1.745-2.316 1.745l0.109 0.466c0.802-0.622 1.633-1.245 2.468-1.852z"></path>
			<path fill="#fefefe" style="fill: var(--color1, #fefefe)" d="M0.712 30.635c-0.832-1.145 0.939-4.192 4.828-8.161l-0.189-0.441c-2.067 2.109-5.168 5.622-5.278 7.8v0.224c0.016 0.316 0.104 0.599 0.278 0.84 1.658 2.283 9.825-1.433 17.184-6.128l-0.433-0.265c-8.362 5.336-15.143 7.851-16.391 6.132z"></path>
			<path fill="#d01345" style="fill: var(--color2, #d01345)" d="M25.295 2.444c0.030 0.102-0.029 0.209-0.131 0.24-0.089 0.026-0.181-0.015-0.224-0.093 0.066-0.096 0.136-0.189 0.208-0.28 0.068 0.014 0.126 0.063 0.147 0.134v0zM32.344 9.374c-0.087 0.039-0.193 0.027-0.27-0.039-0.106-0.092-0.117-0.252-0.025-0.358s0.252-0.117 0.358-0.026c0.097 0.084 0.114 0.225 0.045 0.33-0.036 0.031-0.072 0.063-0.108 0.093v0zM24.806 7.146c0-1.773 1.437-3.21 3.209-3.21s3.209 1.437 3.209 3.21c0 1.773-1.437 3.21-3.209 3.21-0.075 0-0.15-0.004-0.224-0.009-1.053-0.288-1.97-0.906-2.632-1.737-0.226-0.439-0.353-0.936-0.353-1.464v0zM24.125 6.295c0.106-0.092 0.259-0.119 0.395-0.057 0.026 0.012 0.049 0.026 0.071 0.043l-0.003 0.001c-0.053 0.211-0.086 0.427-0.1 0.641l0.001 0.001c-0.068 0.024-0.143 0.028-0.215 0.009-0.063-0.207-0.113-0.42-0.149-0.637v0zM24.736 3.902c0.076 0.118 0.041 0.275-0.077 0.351s-0.275 0.042-0.351-0.076c-0.076-0.118-0.042-0.275 0.076-0.351s0.275-0.042 0.351 0.076v0zM24.694 5.938c-0.092 0.005-0.187-0.024-0.262-0.090-0.154-0.134-0.171-0.367-0.037-0.522s0.368-0.171 0.522-0.037c0.021 0.019 0.040 0.039 0.056 0.061h-0.003c-0.11 0.188-0.203 0.386-0.276 0.587l0 0.001zM25.565 4.492c0.015 0.024 0.028 0.049 0.037 0.074l-0.003-0.001c-0.158 0.149-0.304 0.313-0.431 0.485l0 0.001c-0.090-0.021-0.172-0.076-0.226-0.16-0.111-0.172-0.061-0.401 0.111-0.511s0.401-0.061 0.511 0.111v0zM25.467 2.937c0.135-0.040 0.276 0.038 0.315 0.172s-0.038 0.276-0.172 0.315c-0.134 0.039-0.276-0.038-0.315-0.172s0.038-0.276 0.172-0.315v0zM32.402 7.766c0.058-0.127 0.209-0.183 0.336-0.125s0.184 0.209 0.125 0.336c-0.058 0.128-0.209 0.184-0.337 0.125s-0.184-0.209-0.125-0.337v0zM32.042 5.296c-0.020-0.139 0.077-0.267 0.215-0.287s0.268 0.077 0.287 0.215c0.020 0.139-0.077 0.267-0.215 0.287s-0.267-0.077-0.287-0.216v0zM31.625 7.032c-0.028-0.004-0.055-0.011-0.080-0.021l0.002-0.002c-0.008-0.217-0.037-0.434-0.084-0.643l-0.001-0c0.075-0.054 0.17-0.080 0.269-0.066 0.202 0.029 0.342 0.217 0.313 0.419s-0.217 0.342-0.419 0.313v0zM31.511 8.053c-0.026-0.012-0.049-0.026-0.071-0.043l0.003-0.001c0.053-0.211 0.087-0.427 0.1-0.641l-0.001-0.001c0.087-0.031 0.186-0.029 0.277 0.013 0.186 0.085 0.267 0.304 0.183 0.49s-0.305 0.267-0.49 0.182v0zM31.343 5.288c0.202-0.029 0.389 0.112 0.418 0.314s-0.112 0.389-0.314 0.418c-0.028 0.004-0.056 0.005-0.083 0.003l0.002-0.002c-0.070-0.206-0.158-0.406-0.262-0.593l-0.001-0c0.057-0.073 0.141-0.125 0.24-0.139v0zM31.484 3.901c0.128-0.058 0.278-0.002 0.336 0.126s0.002 0.278-0.126 0.336c-0.128 0.058-0.278 0.002-0.336-0.126s-0.002-0.278 0.126-0.336v0zM29.256 2.892c-0.118-0.076-0.152-0.233-0.076-0.351s0.233-0.152 0.351-0.076 0.152 0.233 0.076 0.351c-0.076 0.118-0.233 0.152-0.351 0.076v0zM28.792 3.414c0.111-0.172 0.34-0.221 0.511-0.111s0.221 0.339 0.11 0.511c-0.015 0.024-0.033 0.045-0.052 0.064l-0-0.003c-0.201-0.083-0.41-0.147-0.62-0.191l-0.001 0.001c-0.018-0.091-0.002-0.188 0.052-0.272v0zM29.792 2.012c-0.058 0.090-0.177 0.115-0.267 0.058s-0.115-0.177-0.058-0.267c0.058-0.089 0.177-0.115 0.267-0.058s0.115 0.177 0.058 0.267v0zM33.259 6.408c0.015-0.105 0.113-0.179 0.219-0.163s0.179 0.113 0.163 0.219c-0.015 0.105-0.113 0.179-0.218 0.163s-0.179-0.113-0.163-0.219v0zM30.913 2.428c0.081-0.070 0.203-0.061 0.272 0.020s0.061 0.203-0.020 0.272c-0.080 0.070-0.202 0.061-0.272-0.020s-0.061-0.203 0.020-0.272v0zM30.762 3.439c-0.106 0.092-0.266 0.080-0.358-0.026s-0.080-0.266 0.026-0.358c0.106-0.092 0.267-0.080 0.358 0.026s0.080 0.267-0.026 0.358v0zM32.029 3.691c-0.044-0.097-0.001-0.211 0.096-0.256s0.211-0.001 0.256 0.096c0.044 0.097 0.001 0.211-0.096 0.256s-0.211 0.001-0.255-0.096v0zM32.902 6.578c-0.020 0.139-0.149 0.235-0.288 0.215s-0.235-0.149-0.215-0.288c0.020-0.139 0.149-0.235 0.288-0.215s0.235 0.149 0.215 0.288v0zM32.839 4.961c-0.015-0.106 0.058-0.203 0.164-0.218s0.203 0.058 0.218 0.164c0.015 0.106-0.058 0.203-0.164 0.218s-0.203-0.058-0.218-0.164v0zM27.018 3.218c0.204 0 0.37 0.166 0.37 0.37 0 0.028-0.003 0.056-0.009 0.082l-0.002-0.002c-0.214 0.040-0.424 0.099-0.624 0.176l-0 0.001c-0.064-0.067-0.104-0.157-0.104-0.257 0-0.204 0.166-0.37 0.37-0.37v0zM26.755 2.389c0.14 0 0.254 0.114 0.254 0.254s-0.114 0.254-0.254 0.254-0.254-0.114-0.254-0.254c0-0.14 0.114-0.254 0.254-0.254v0zM26.425 3.99l-0.002-0.002c-0.194 0.098-0.379 0.214-0.55 0.344l-0 0.001c-0.080-0.046-0.144-0.121-0.172-0.217-0.058-0.196 0.055-0.401 0.251-0.459s0.402 0.055 0.459 0.251c0.008 0.027 0.013 0.055 0.014 0.082v0zM26.343 1.867c0-0.107 0.086-0.193 0.193-0.193s0.193 0.086 0.193 0.193c0 0.106-0.086 0.193-0.193 0.193s-0.193-0.087-0.193-0.193v0zM28.169 3.096c0.196 0.058 0.308 0.263 0.25 0.459-0.008 0.027-0.019 0.053-0.032 0.076l-0.001-0.003c-0.216-0.022-0.435-0.025-0.649-0.008l-0.001 0.001c-0.043-0.082-0.055-0.18-0.027-0.276 0.058-0.196 0.264-0.308 0.459-0.25v0zM27.904 1.611c0.030-0.102 0.138-0.161 0.24-0.131s0.161 0.138 0.13 0.24c-0.030 0.102-0.137 0.161-0.239 0.131s-0.161-0.138-0.131-0.24v0zM28.152 2.228c0.134 0.040 0.212 0.181 0.172 0.315s-0.181 0.211-0.315 0.172c-0.134-0.039-0.211-0.181-0.172-0.315s0.181-0.211 0.315-0.172v0zM29.686 4.030l-0.001 0c0.008-0.092 0.051-0.181 0.126-0.246 0.154-0.134 0.388-0.117 0.521 0.038s0.117 0.388-0.038 0.522c-0.022 0.018-0.045 0.034-0.069 0.047l0.001-0.003c-0.17-0.136-0.352-0.256-0.541-0.358v0zM30.495 4.626h-0.001c0.034-0.086 0.1-0.159 0.191-0.201 0.186-0.085 0.405-0.003 0.49 0.183s0.003 0.405-0.183 0.49c-0.026 0.012-0.052 0.020-0.079 0.026l0.001-0.003c-0.125-0.178-0.266-0.345-0.419-0.495v0zM31.336 8.352c0.092-0.005 0.187 0.025 0.262 0.090 0.154 0.134 0.171 0.367 0.037 0.522s-0.367 0.171-0.522 0.037c-0.021-0.018-0.040-0.039-0.056-0.061h0.003c0.11-0.187 0.204-0.385 0.277-0.587l-0-0.001zM30.465 9.798c-0.015-0.024-0.028-0.049-0.037-0.074l0.003 0.001c0.158-0.149 0.304-0.313 0.431-0.485l-0-0.001c0.090 0.021 0.172 0.076 0.226 0.16 0.11 0.172 0.060 0.401-0.112 0.511s-0.401 0.060-0.511-0.112v0zM29.677 10.496c-0.025-0.034-0.046-0.072-0.059-0.116-0.008-0.027-0.013-0.055-0.014-0.082l0.002 0.002c0.194-0.098 0.38-0.214 0.55-0.344v-0.001c0.080 0.046 0.144 0.122 0.172 0.217 0.021 0.071 0.019 0.143-0.001 0.209-0.212 0.052-0.429 0.090-0.65 0.114v0zM33.4 8.185c-0.017-0.003-0.035-0.007-0.051-0.014-0.097-0.044-0.139-0.159-0.095-0.256s0.159-0.139 0.256-0.095c0.030 0.014 0.055 0.035 0.073 0.060-0.057 0.104-0.119 0.206-0.183 0.305v0zM26.792 10.288c0.707 0.343 1.499 0.535 2.335 0.535 2.961 0 5.371-2.409 5.371-5.371 0-0.835-0.192-1.627-0.533-2.332-0.067-0.137-0.139-0.271-0.217-0.401-0.937-1.577-2.657-2.637-4.62-2.637-2.961 0-5.371 2.409-5.371 5.371 0 0.014 0.001 0.027 0.001 0.041s-0.001 0.027-0.001 0.041c0 0.601 0.103 1.178 0.29 1.716 0.050 0.145 0.107 0.286 0.169 0.425 0.517 1.15 1.435 2.081 2.577 2.613v0z"></path>
			<path fill="#fefefe" style="fill: var(--color1, #fefefe)" d="M27.792 10.347c0.074 0.005 0.148 0.009 0.224 0.009 1.773 0 3.209-1.437 3.209-3.21s-1.437-3.209-3.209-3.209c-1.773 0-3.209 1.437-3.209 3.209 0 0.528 0.128 1.025 0.353 1.464 0.663 0.831 1.579 1.45 2.632 1.737z"></path>
			<path fill="#fefefe" style="fill: var(--color1, #fefefe)" d="M26.755 2.897c0.14 0 0.254-0.114 0.254-0.254s-0.114-0.254-0.254-0.254-0.254 0.114-0.254 0.254c0 0.14 0.114 0.254 0.254 0.254z"></path>
			<path fill="#fefefe" style="fill: var(--color1, #fefefe)" d="M26.729 1.867c0-0.107-0.086-0.193-0.193-0.193s-0.193 0.086-0.193 0.193c0 0.107 0.086 0.193 0.193 0.193s0.193-0.087 0.193-0.193z"></path>
			<path fill="#fefefe" style="fill: var(--color1, #fefefe)" d="M26.752 3.844c0.2-0.077 0.411-0.136 0.624-0.176l0.002 0.002c0.006-0.026 0.009-0.054 0.009-0.082 0-0.204-0.166-0.37-0.37-0.37s-0.37 0.166-0.37 0.37c0 0.1 0.040 0.19 0.104 0.257l0-0.001z"></path>
			<path fill="#fefefe" style="fill: var(--color1, #fefefe)" d="M25.295 3.252c0.039 0.135 0.181 0.212 0.315 0.172s0.212-0.181 0.172-0.315c-0.040-0.134-0.181-0.212-0.315-0.172s-0.212 0.181-0.172 0.315z"></path>
			<path fill="#fefefe" style="fill: var(--color1, #fefefe)" d="M24.94 2.59c0.042 0.078 0.135 0.119 0.224 0.093 0.102-0.030 0.161-0.137 0.131-0.24-0.021-0.071-0.079-0.12-0.147-0.134-0.072 0.091-0.142 0.184-0.208 0.28z"></path>
			<path fill="#fefefe" style="fill: var(--color1, #fefefe)" d="M25.952 3.658c-0.196 0.058-0.308 0.263-0.251 0.459 0.028 0.096 0.091 0.171 0.172 0.217l0-0.001c0.17-0.13 0.356-0.246 0.55-0.344l0.002 0.001c-0.001-0.027-0.006-0.055-0.014-0.082-0.058-0.196-0.263-0.308-0.459-0.251z"></path>
			<path fill="#fefefe" style="fill: var(--color1, #fefefe)" d="M24.385 3.825c-0.118 0.076-0.152 0.233-0.076 0.351s0.233 0.152 0.351 0.076c0.118-0.076 0.152-0.233 0.077-0.351s-0.233-0.152-0.351-0.076z"></path>
			<path fill="#fefefe" style="fill: var(--color1, #fefefe)" d="M25.053 4.38c-0.172 0.11-0.222 0.339-0.111 0.511 0.054 0.084 0.136 0.139 0.226 0.16l-0-0.001c0.127-0.173 0.272-0.336 0.43-0.485l0.003 0.001c-0.009-0.025-0.022-0.050-0.037-0.074-0.11-0.172-0.339-0.222-0.511-0.111z"></path>
			<path fill="#fefefe" style="fill: var(--color1, #fefefe)" d="M24.973 5.35c-0.016-0.022-0.035-0.042-0.056-0.061-0.154-0.134-0.388-0.117-0.522 0.037s-0.117 0.388 0.037 0.522c0.075 0.065 0.17 0.095 0.262 0.090l-0-0.001c0.073-0.202 0.166-0.399 0.276-0.587h0.003z"></path>
			<path fill="#fefefe" style="fill: var(--color1, #fefefe)" d="M24.489 6.923l-0.001-0.001c0.013-0.214 0.047-0.43 0.1-0.641l0.003-0.001c-0.022-0.017-0.045-0.031-0.071-0.043-0.136-0.062-0.289-0.034-0.395 0.057 0.037 0.217 0.086 0.43 0.149 0.637 0.073 0.019 0.147 0.015 0.215-0.009z"></path>
			<path fill="#fefefe" style="fill: var(--color1, #fefefe)" d="M30.328 10.173c-0.028-0.096-0.091-0.171-0.172-0.217v0.001c-0.17 0.13-0.356 0.246-0.55 0.344l-0.002-0.002c0.002 0.027 0.006 0.055 0.014 0.082 0.013 0.043 0.034 0.081 0.059 0.116 0.221-0.024 0.438-0.063 0.65-0.114 0.020-0.066 0.022-0.138 0.001-0.209z"></path>
			<path fill="#fefefe" style="fill: var(--color1, #fefefe)" d="M31.087 9.399c-0.054-0.084-0.136-0.139-0.226-0.16l0 0.001c-0.127 0.173-0.272 0.336-0.431 0.485l-0.003-0.001c0.009 0.026 0.021 0.050 0.037 0.074 0.11 0.172 0.339 0.222 0.511 0.112s0.222-0.339 0.112-0.511z"></path>
			<path fill="#fefefe" style="fill: var(--color1, #fefefe)" d="M32.407 8.951c-0.106-0.092-0.266-0.080-0.358 0.025s-0.080 0.266 0.026 0.358c0.077 0.067 0.182 0.078 0.27 0.039 0.037-0.030 0.072-0.062 0.108-0.093 0.068-0.105 0.052-0.246-0.045-0.33z"></path>
			<path fill="#fefefe" style="fill: var(--color1, #fefefe)" d="M31.057 8.94c0.016 0.022 0.035 0.043 0.056 0.061 0.154 0.134 0.388 0.117 0.522-0.037s0.117-0.388-0.037-0.522c-0.075-0.065-0.17-0.095-0.262-0.090l0 0.001c-0.073 0.201-0.166 0.399-0.277 0.586h-0.003z"></path>
			<path fill="#fefefe" style="fill: var(--color1, #fefefe)" d="M32.527 8.102c0.127 0.059 0.278 0.002 0.337-0.125s0.002-0.278-0.125-0.336c-0.127-0.058-0.278-0.002-0.336 0.125s-0.002 0.278 0.125 0.337z"></path>
			<path fill="#fefefe" style="fill: var(--color1, #fefefe)" d="M33.509 7.82c-0.097-0.044-0.211-0.002-0.256 0.095s-0.002 0.211 0.095 0.256c0.017 0.008 0.034 0.012 0.051 0.014 0.064-0.1 0.126-0.201 0.183-0.305-0.019-0.025-0.043-0.046-0.073-0.060z"></path>
			<path fill="#fefefe" style="fill: var(--color1, #fefefe)" d="M31.819 7.381c-0.091-0.041-0.189-0.043-0.277-0.013l0.001 0.001c-0.014 0.214-0.047 0.43-0.1 0.641l-0.003 0.001c0.022 0.017 0.045 0.031 0.071 0.043 0.185 0.085 0.405 0.004 0.49-0.182s0.003-0.405-0.182-0.49z"></path>
			<path fill="#fefefe" style="fill: var(--color1, #fefefe)" d="M32.687 6.29c-0.139-0.020-0.267 0.076-0.288 0.215s0.076 0.267 0.215 0.288c0.139 0.020 0.268-0.076 0.288-0.215s-0.076-0.268-0.215-0.288z"></path>
			<path fill="#fefefe" style="fill: var(--color1, #fefefe)" d="M33.422 6.627c0.105 0.015 0.203-0.058 0.218-0.163s-0.058-0.203-0.163-0.219c-0.105-0.015-0.203 0.058-0.219 0.163s0.058 0.203 0.163 0.219z"></path>
			<path fill="#fefefe" style="fill: var(--color1, #fefefe)" d="M31.731 6.3c-0.099-0.014-0.194 0.012-0.269 0.066l0.001 0c0.047 0.209 0.076 0.426 0.084 0.643l-0.002 0.002c0.025 0.010 0.052 0.017 0.080 0.021 0.202 0.029 0.39-0.111 0.419-0.313s-0.111-0.39-0.313-0.419z"></path>
			<path fill="#fefefe" style="fill: var(--color1, #fefefe)" d="M32.329 5.512c0.139-0.020 0.235-0.148 0.215-0.287s-0.149-0.235-0.287-0.215c-0.139 0.020-0.235 0.148-0.215 0.287s0.148 0.235 0.287 0.216z"></path>
			<path fill="#fefefe" style="fill: var(--color1, #fefefe)" d="M33.057 5.125c0.105-0.015 0.179-0.113 0.164-0.218s-0.113-0.179-0.218-0.164c-0.105 0.015-0.179 0.113-0.164 0.218s0.113 0.179 0.218 0.164z"></path>
			<path fill="#fefefe" style="fill: var(--color1, #fefefe)" d="M31.366 6.020l-0.002 0.002c0.027 0.002 0.055 0.001 0.083-0.003 0.202-0.029 0.343-0.216 0.314-0.418s-0.216-0.343-0.418-0.314c-0.099 0.014-0.183 0.066-0.24 0.139l0.001 0c0.104 0.187 0.193 0.387 0.262 0.593z"></path>
			<path fill="#fefefe" style="fill: var(--color1, #fefefe)" d="M31.358 4.237c0.058 0.128 0.209 0.184 0.336 0.126s0.184-0.209 0.126-0.336c-0.058-0.128-0.209-0.184-0.336-0.126s-0.184 0.209-0.126 0.336z"></path>
			<path fill="#fefefe" style="fill: var(--color1, #fefefe)" d="M32.284 3.787c0.097-0.044 0.14-0.159 0.096-0.256s-0.158-0.14-0.256-0.096c-0.097 0.044-0.14 0.159-0.096 0.256s0.159 0.14 0.255 0.096z"></path>
			<path fill="#fefefe" style="fill: var(--color1, #fefefe)" d="M30.992 5.099c0.186-0.085 0.268-0.304 0.183-0.49s-0.304-0.268-0.49-0.183c-0.091 0.041-0.157 0.115-0.191 0.201h0.001c0.153 0.15 0.294 0.317 0.419 0.495l-0.001 0.003c0.027-0.005 0.053-0.014 0.079-0.026z"></path>
			<path fill="#fefefe" style="fill: var(--color1, #fefefe)" d="M30.43 3.055c-0.106 0.092-0.118 0.252-0.026 0.358s0.252 0.118 0.358 0.026c0.106-0.092 0.118-0.252 0.026-0.358s-0.252-0.118-0.358-0.026z"></path>
			<path fill="#fefefe" style="fill: var(--color1, #fefefe)" d="M31.165 2.72c0.081-0.070 0.090-0.192 0.020-0.272s-0.191-0.089-0.272-0.020c-0.081 0.070-0.089 0.192-0.020 0.272s0.192 0.089 0.272 0.020z"></path>
			<path fill="#fefefe" style="fill: var(--color1, #fefefe)" d="M30.295 4.343c0.154-0.134 0.171-0.367 0.038-0.522s-0.367-0.171-0.521-0.038c-0.075 0.065-0.118 0.154-0.126 0.246l0.001-0c0.189 0.101 0.372 0.222 0.541 0.358l-0.001 0.003c0.024-0.013 0.047-0.028 0.069-0.047z"></path>
			<path fill="#fefefe" style="fill: var(--color1, #fefefe)" d="M29.607 2.816c0.076-0.118 0.042-0.275-0.076-0.351s-0.275-0.042-0.351 0.076c-0.076 0.118-0.042 0.275 0.076 0.351s0.275 0.042 0.351-0.076z"></path>
			<path fill="#fefefe" style="fill: var(--color1, #fefefe)" d="M29.467 1.803c-0.058 0.090-0.032 0.209 0.058 0.267s0.209 0.032 0.267-0.058c0.058-0.089 0.032-0.209-0.058-0.267s-0.209-0.032-0.267 0.058z"></path>
			<path fill="#fefefe" style="fill: var(--color1, #fefefe)" d="M28.741 3.686c0.21 0.044 0.419 0.108 0.62 0.191l0 0.003c0.019-0.019 0.037-0.041 0.052-0.064 0.111-0.172 0.061-0.401-0.111-0.511s-0.401-0.061-0.511 0.111c-0.054 0.084-0.070 0.181-0.052 0.272l0.001-0.001z"></path>
			<path fill="#fefefe" style="fill: var(--color1, #fefefe)" d="M28.008 2.714c0.134 0.040 0.275-0.037 0.315-0.172s-0.037-0.276-0.172-0.315c-0.135-0.040-0.275 0.037-0.315 0.172s0.037 0.276 0.172 0.315z"></path>
			<path fill="#fefefe" style="fill: var(--color1, #fefefe)" d="M28.035 1.85c0.102 0.030 0.209-0.028 0.239-0.131s-0.028-0.21-0.13-0.24c-0.102-0.030-0.209 0.028-0.24 0.131s0.028 0.21 0.131 0.24z"></path>
			<path fill="#fefefe" style="fill: var(--color1, #fefefe)" d="M27.736 3.622l0.001-0.001c0.214-0.017 0.432-0.014 0.649 0.008l0.001 0.003c0.013-0.024 0.024-0.049 0.032-0.076 0.058-0.196-0.054-0.402-0.25-0.459s-0.401 0.054-0.459 0.25c-0.028 0.096-0.016 0.194 0.027 0.276z"></path>
			<path fill="#fefefe" style="fill: var(--color1, #fefefe)" d="M32.077 12.779c-1.185 0-2.135 0.401-2.85 1.204v-1h-2.556v10.945h2.556v-6.238c0-0.777 0.23-1.435 0.689-1.974s0.986-0.808 1.578-0.808c0.545 0 1.045 0.155 1.502 0.463l1.083-2.193c-0.463-0.266-1.131-0.399-2.002-0.399z"></path>
			<path fill="#fefefe" style="fill: var(--color1, #fefefe)" d="M41.107 18.91c-0.422-0.538-1.112-0.996-2.071-1.374s-1.584-0.679-1.877-0.903c-0.292-0.225-0.439-0.476-0.439-0.755 0-0.708 0.445-1.062 1.334-1.062 0.991 0 1.765 0.235 2.322 0.704l0.733-1.977c-0.998-0.509-2.064-0.764-3.198-0.764-1.12 0-2.041 0.264-2.76 0.792s-1.080 1.265-1.080 2.212c0 1.41 0.942 2.507 2.826 3.29 0.864 0.361 1.445 0.674 1.744 0.939s0.449 0.606 0.449 1.021c0 0.708-0.497 1.062-1.49 1.062-0.96 0-1.82-0.302-2.583-0.907l-0.909 2.035c0.687 0.368 1.25 0.612 1.688 0.731s1.022 0.179 1.75 0.179c1.292 0 2.314-0.291 3.065-0.874s1.127-1.381 1.127-2.396c0-0.763-0.211-1.413-0.632-1.951z"></path>
			<path fill="#fefefe" style="fill: var(--color1, #fefefe)" d="M22.422 19.787c0 1.539-0.765 2.308-2.296 2.308-1.136 0-1.704-0.492-1.704-1.476 0-1.325 1.007-1.988 3.021-1.988 0.218 0 0.544 0.043 0.979 0.13v1.026zM25.15 24.003c0.259-0.086 0.495-0.315 0.706-0.686-0.586-0.375-0.879-1.29-0.879-2.747v-2.338c0-2.117-0.389-3.555-1.167-4.314s-2.002-1.139-3.673-1.139c-1.215 0-2.262 0.21-3.142 0.63l0.552 1.982c0.647-0.321 1.451-0.482 2.412-0.482 1.629 0 2.443 0.642 2.443 1.926-0.409-0.099-0.763-0.148-1.062-0.148-1.75 0-3.1 0.358-4.050 1.074s-1.425 1.708-1.425 2.976c0 1.084 0.337 1.921 1.010 2.51s1.599 0.885 2.776 0.885c0.626 0 1.226-0.121 1.801-0.362s0.978-0.553 1.209-0.934c0.103 0.32 0.301 0.616 0.597 0.888s0.628 0.408 0.998 0.408c0.336 0 0.634-0.043 0.893-0.129v0z"></path>
			<path fill="#fefefe" style="fill: var(--color1, #fefefe)" d="M2.574 23.928l1.611-8.056 3.019 8.26h0.944l3.019-8.26 1.556 8.056h2.574l-3.056-14.964h-1.407l-3.167 10.075-3.241-10.075h-1.408l-3.019 14.964z"></path>
			<path fill="#fefefe" style="fill: var(--color1, #fefefe)" d="M35.613 27.359h0.338v2.195h0.62v-2.713h-0.958z"></path>
			<path fill="#fefefe" style="fill: var(--color1, #fefefe)" d="M38.792 29.077c-0.526 0-0.788-0.285-0.788-0.856 0-0.283 0.068-0.504 0.203-0.664s0.319-0.24 0.552-0.24c0.243 0 0.436 0.069 0.58 0.208l0.263-0.472c-0.226-0.176-0.492-0.264-0.799-0.264-0.444 0-0.795 0.132-1.052 0.395s-0.386 0.609-0.386 1.036c0 0.434 0.118 0.773 0.352 1.017s0.556 0.366 0.962 0.366c0.182 0 0.339-0.015 0.473-0.046s0.289-0.103 0.468-0.218l-0.226-0.5c-0.173 0.157-0.374 0.236-0.602 0.236z"></path>
			<path fill="#fefefe" style="fill: var(--color1, #fefefe)" d="M36.266 25.79c-0.098 0-0.182 0.036-0.252 0.108s-0.105 0.159-0.105 0.26c0 0.101 0.035 0.188 0.105 0.26s0.154 0.108 0.252 0.108c0.098 0 0.182-0.036 0.252-0.108s0.105-0.159 0.105-0.26c0-0.102-0.035-0.188-0.105-0.26s-0.154-0.108-0.252-0.108z"></path>
			<path fill="#fefefe" style="fill: var(--color1, #fefefe)" d="M25.661 27.915c0.085-0.398 0.303-0.597 0.653-0.597 0.383 0 0.596 0.199 0.639 0.597h-1.292zM26.305 26.79c-0.358 0-0.666 0.133-0.922 0.398s-0.384 0.612-0.384 1.039c0 0.434 0.117 0.772 0.35 1.015s0.55 0.363 0.952 0.363c0.429 0 0.751-0.091 0.967-0.273l-0.238-0.481c-0.146 0.151-0.359 0.227-0.639 0.227-0.225 0-0.403-0.060-0.536-0.18s-0.205-0.288-0.216-0.505h1.879c0.034-0.157 0.051-0.275 0.051-0.352 0-0.363-0.115-0.663-0.346-0.897s-0.537-0.352-0.918-0.352v0z"></path>
			<path fill="#fefefe" style="fill: var(--color1, #fefefe)" d="M24.158 28.729v-3.050l-0.616 0.152v3.176c0 0.398 0.139 0.598 0.417 0.598 0.229 0 0.391-0.093 0.486-0.278-0.191-0.064-0.287-0.263-0.287-0.598z"></path>
			<path fill="#fefefe" style="fill: var(--color1, #fefefe)" d="M20.364 29.554h2.268v-0.583h-1.63v-1.111h1.162v-0.56h-1.162v-0.87h1.63v-0.583h-2.268z"></path>
			<path fill="#fefefe" style="fill: var(--color1, #fefefe)" d="M29.568 29.077c-0.526 0-0.788-0.285-0.788-0.856 0-0.283 0.067-0.504 0.203-0.664s0.319-0.24 0.552-0.24c0.243 0 0.436 0.069 0.58 0.208l0.263-0.472c-0.226-0.176-0.492-0.264-0.799-0.264-0.444 0-0.795 0.132-1.052 0.395s-0.386 0.609-0.386 1.036c0 0.434 0.118 0.773 0.352 1.017s0.555 0.366 0.962 0.366c0.182 0 0.339-0.015 0.473-0.046s0.289-0.103 0.468-0.218l-0.226-0.5c-0.173 0.157-0.374 0.236-0.602 0.236z"></path>
			<path fill="#fefefe" style="fill: var(--color1, #fefefe)" d="M34.004 27.091v-0.25h-0.616v2.713h0.616v-1.547c0-0.193 0.055-0.356 0.166-0.489s0.237-0.2 0.379-0.2c0.131 0 0.251 0.037 0.361 0.111l0.26-0.541c-0.111-0.066-0.272-0.098-0.481-0.098-0.285 0-0.513 0.1-0.685 0.301z"></path>
			<path fill="#fefefe" style="fill: var(--color1, #fefefe)" d="M31.939 28.952c-0.059-0.080-0.088-0.218-0.088-0.412v-1.19h0.722v-0.509h-0.722v-0.787l-0.616 0.234v0.553h-0.306v0.509h0.306v1.373c0 0.282 0.071 0.499 0.211 0.652s0.342 0.229 0.605 0.229c0.264 0 0.467-0.025 0.61-0.076v-0.582c-0.128 0.083-0.265 0.125-0.413 0.125s-0.25-0.040-0.309-0.121z"></path>
</svg>