<svg xmlns="http://www.w3.org/2000/svg" width="142" height="18" fill="none" viewBox="0 0 142 18">
    <path fill="#fff" fill-opacity=".01" d="M0 0H141V17H0z" transform="translate(0.0930481 0.000976562)"/>
    <path fill="#fff" d="M8.185 12.551V8.505c-4.469 0-8.092 3.623-8.092 8.092h4.046c0-2.234 1.811-4.046 4.046-4.046zm3.919-5.057c.083.323.127.662.127 1.011 0 2.235-1.811 4.046-4.046 4.046v4.045h.055c4.444-.03 8.037-3.64 8.037-8.091 0-.342-.021-.68-.063-1.01h-4.11zM4.266 9.515c-.083-.323-.127-.661-.127-1.01 0-2.235 1.811-4.047 4.046-4.047V.413H8.13C3.686.443.093 4.053.093 8.505c0 .342.021.68.062 1.01h4.111zm3.919-1.01V4.459c2.234 0 4.046-1.811 4.046-4.046h4.046c0 4.47-3.623 8.092-8.092 8.092zM20.323 16.593h4.284V10.7h6.415V7.074h-6.415V4.036h6.8V.409H20.323v16.184zm17.507-6.437h6.89V6.575h-6.89V3.99h7.344V.409H33.59v16.184h11.696v-3.58H37.83v-2.857zm50.07-.113c0 1.088-.19 1.896-.568 2.425-.377.53-1.02.793-1.926.793-.907 0-1.55-.264-1.927-.793-.378-.529-.567-1.337-.567-2.425V.409h-4.351v9.475c0 1.254.15 2.331.453 3.23.302.899.744 1.636 1.326 2.21.581.574 1.295.997 2.142 1.27.846.271 1.805.407 2.879.407 1.073 0 2.036-.136 2.89-.408.853-.272 1.575-.695 2.164-1.27.59-.573 1.043-1.31 1.36-2.209.318-.899.476-1.976.476-3.23V.409H87.9v9.634zm14.59-3.355l-2.199-.43c-.634-.122-1.095-.296-1.382-.522-.287-.227-.43-.529-.43-.907 0-.423.177-.759.532-1.008.355-.25.903-.375 1.643-.375.816 0 1.417.16 1.802.476.384.316.644.798.78 1.443l.002.008h4.258c-.172-2.387-1.236-3.422-1.764-3.876-.529-.453-1.209-.816-2.04-1.088-.831-.272-1.836-.408-3.015-.408-2.025 0-3.615.427-4.771 1.28-1.156.855-1.734 2.12-1.734 3.798 0 1.39.43 2.478 1.292 3.263.861.786 2.19 1.346 3.99 1.678l2.152.408c.68.136 1.149.329 1.406.578.257.25.385.563.385.94 0 .5-.192.885-.578 1.157-.386.271-.963.408-1.734.408-.907 0-1.594-.185-2.063-.556-.468-.37-.748-.932-.838-1.688h-4.33c.227 3.793 2.584 5.704 7.072 5.734 1.164 0 2.177-.128 3.038-.385.861-.257 1.571-.615 2.13-1.077.559-.46.975-1.016 1.247-1.666.272-.65.408-1.375.408-2.176 0-1.284-.4-2.346-1.202-3.184-.8-.84-2.153-1.447-4.057-1.825zm17.996 1.813c0-1.556-.283-2.739-.85-3.547-.566-.808-1.432-1.213-2.595-1.213-1.164 0-2.032.405-2.607 1.213-.574.808-.861 1.991-.861 3.547 0 1.557.287 2.74.861 3.548.575.808 1.443 1.212 2.607 1.212 1.163 0 2.029-.404 2.595-1.212.567-.809.85-1.991.85-3.548zm3.99-3.58c.347 1.041.521 2.213.521 3.512 0 1.315-.178 2.501-.533 3.559-.355 1.058-.872 1.957-1.552 2.697s-1.519 1.312-2.516 1.712c-.998.4-2.139.6-3.423.6-1.269 0-2.395-.197-3.377-.589-.983-.393-1.81-.952-2.483-1.678-.672-.725-1.182-1.609-1.529-2.651-.348-1.043-.522-2.214-.522-3.514 0-1.314.178-2.5.533-3.558.355-1.058.873-1.957 1.553-2.698.68-.74 1.518-1.31 2.516-1.711.997-.4 2.138-.601 3.422-.601 1.27 0 2.395.197 3.378.59.982.392 1.809.951 2.482 1.677.672.725 1.182 1.61 1.53 2.652zm-63.975.83c0-1.607-.611-2.897-1.63-3.87C57.848.947 56.521.408 54.293.408h-6.925v16.184h4.148V3.782h2.55c1.427 0 2.242.679 2.242 1.946 0 1.268-.815 1.992-2.242 1.992h-2.55l5.086 8.873h4.646l-3.758-6.292c1.856-.792 3.01-2.4 3.01-4.55zM136.51.409V9.68L131.209.41h-4.333v16.183h4.103V7.345l5.295 9.248h4.339V.41h-4.103zM69.989 7.345h6.596v7.367c-.801.65-1.799 1.194-2.993 1.632-1.193.438-2.508.657-3.943.657-1.346 0-2.513-.2-3.503-.6-.99-.4-1.813-.967-2.47-1.7-.658-.733-1.149-1.617-1.474-2.652-.324-1.035-.487-2.188-.487-3.457 0-1.345.177-2.55.533-3.616.355-1.065.865-1.963 1.53-2.697.664-.732 1.484-1.295 2.46-1.689.974-.392 2.088-.589 3.342-.589 1.088 0 2.033.144 2.834.43.8.288 1.48.674 2.04 1.157.559.484.993 1.043 1.303 1.677.4.794.627 1.77.727 2.426h-4.433c-.166-.695-.446-1.205-.839-1.53-.393-.325-.952-.488-1.677-.488-1.133 0-1.968.401-2.504 1.202-.537.8-.805 2.002-.805 3.603 0 1.618.29 2.83.872 3.639.582.808 1.56 1.212 2.936 1.212.966 0 1.813-.196 2.538-.589v-1.881h-2.584V7.345z"/>
</svg>
