<?xml version="1.0" encoding="utf-8"?>
<!-- Generator: Adobe Illustrator 28.1.0, SVG Export Plug-In . SVG Version: 6.00 Build 0)  -->
<svg version="1.1" id="Layer_3" xmlns="http://www.w3.org/2000/svg" xmlns:xlink="http://www.w3.org/1999/xlink" x="0px" y="0px"
	 width="350px" height="146px" viewBox="0 0 325.4 121.6" style="enable-background:new 0 0 325.4 121.6;" xml:space="preserve">
<style type="text/css">
	.st0{fill:#F26531;}
</style>
<g>
	<path class="st0" d="M38.4,84.4v-32H25.5v32H8.1V7.2h17.4v29.8h12.9V7.2h17.4v77.2H38.4z"/>
	<path class="st0" d="M96.9,84.4l-2-12.5H79.7l-2,12.5H60.8L77.3,7.2h20l16.5,77.2H96.9z M87.3,22.6l-5.6,34H93L87.3,22.6z"/>
	<path class="st0" d="M119.6,67.7c1.7,1.9,4.1,2.5,6.3,2.5c4.4,0,7.4-2.4,7.4-7.5V7.2h17.5v56.5c0,15.4-9.3,22.1-22.8,22.1
		c-4.4,0-9.1-0.9-12.8-3.7L119.6,67.7z"/>
	<path class="st0" d="M184.8,6c18,0,26,16.9,26,39.9s-8.1,39.9-26,39.9c-18,0-26-16.9-26-39.9S166.8,6,184.8,6z M184.8,21.5
		c-6.1,0-8.2,10.2-8.2,24.4c0,14.1,2.1,24.4,8.2,24.4c6.1,0,8.2-10.3,8.2-24.4C192.9,31.7,190.9,21.5,184.8,21.5z"/>
	<path class="st0" d="M216.3,45.9c0-23.4,8.1-39.9,26.1-39.9c13.8,0,18.4,11.1,21,19.9L249.6,31c-1.3-5.9-3-9.5-7.1-9.5
		c-6.2,0-8.3,9.8-8.3,24.4c0,14.5,2.1,24.4,8.3,24.4c4.5,0,6.5-4.7,7.3-11l13.8,5c-2.2,9.1-6.8,21.5-21.1,21.5
		C224.4,85.8,216.3,69.1,216.3,45.9z"/>
	<path class="st0" d="M300.9,84.4l-2-12.5h-15.2l-2,12.5h-16.9l16.5-77.2h20l16.5,77.2H300.9z M291.3,22.6l-5.6,34H297L291.3,22.6z"
		/>
</g>
<g>
	<path class="st0" d="M118.4,112.7c0.7,0.9,1.7,1.3,2.6,1.3c0.9,0,1.4-0.6,1.4-1.4c0-1-0.8-1.6-1.8-2.3c-1.4-1-3.2-2.1-3.2-5.1
		c0-2.5,1.6-4.8,4.7-4.8c1.4,0,2.8,0.5,3.7,1.4l-1.3,2.9c-0.7-0.7-1.4-1-2.2-1c-0.8,0-1.3,0.5-1.3,1.3c0,0.9,0.8,1.5,1.8,2.2
		c1.4,1,3.2,2.2,3.2,5.2c0,2.9-1.8,5-4.7,5c-1.9,0-3.3-0.6-4.4-1.7L118.4,112.7z"/>
	<path class="st0" d="M127.6,117v-16.3h3.5V117H127.6z"/>
	<path class="st0" d="M139.7,117l-2.9-8.9v8.9h-3.5v-16.3h3.5l2.7,8.5v-8.5h3.5V117H139.7z"/>
	<path class="st0" d="M144.7,108.8c0-4.9,1.6-8.4,5.3-8.4c2.8,0,3.7,2.3,4.3,4.2l-2.8,1.1c-0.3-1.2-0.6-2-1.4-2
		c-1.3,0-1.7,2.1-1.7,5.2c0,3.1,0.4,5.2,1.7,5.2c0.9,0,1.3-1,1.5-2.3l2.8,1.1c-0.4,1.9-1.4,4.6-4.3,4.6
		C146.3,117.3,144.7,113.7,144.7,108.8z"/>
	<path class="st0" d="M155.7,117v-16.3h7.3v3.2h-3.8v3.2h3.6v3.2h-3.6v3.5h3.8v3.2H155.7z"/>
	<path class="st0" d="M171.6,117v-11.6l-2.1,2.3l-2-2.2l4.6-4.8h3.1V117H171.6z"/>
	<path class="st0" d="M179.5,108.6c-1.3-0.5-2.5-1.9-2.5-3.9c0-3,2.3-4.3,4.7-4.3c2.4,0,4.7,1.3,4.7,4.3c0,2-1.2,3.4-2.5,3.9
		c1.4,0.6,2.7,2.3,2.7,4.2c0,2.8-1.7,4.5-4.9,4.5c-3.2,0-4.9-1.7-4.9-4.5C176.8,110.9,178.1,109.1,179.5,108.6z M181.7,109.9
		c-0.3,0.1-1.4,0.9-1.4,2.3c0,1.2,0.6,1.8,1.4,1.8c0.7,0,1.4-0.5,1.4-1.8C183.1,110.7,182,109.9,181.7,109.9z M181.7,103.7
		c-0.8,0-1.3,0.6-1.3,1.7c0,1.3,1,1.9,1.3,2c0.2-0.1,1.2-0.7,1.2-2C183,104.3,182.5,103.7,181.7,103.7z"/>
	<path class="st0" d="M189.9,112.4c0.6,1,1.4,1.6,2.4,1.6c1.1,0,1.8-1.1,1.8-2.3c0-1.4-0.6-2.2-1.5-2.2c-0.8,0-1.3,0.4-1.8,1.3
		l-2.6-0.7v-9.4h8.8v3.2h-5.2v3.7c0.4-0.8,1.3-1.3,2.3-1.3c2.2,0,3.7,1.9,3.7,5.3c0,3.3-1.9,5.6-5.1,5.6c-2.2,0-3.8-0.9-4.9-2.6
		L189.9,112.4z"/>
	<path class="st0" d="M201.4,108.6c-1.3-0.5-2.5-1.9-2.5-3.9c0-3,2.3-4.3,4.7-4.3c2.4,0,4.7,1.3,4.7,4.3c0,2-1.2,3.4-2.5,3.9
		c1.4,0.6,2.7,2.3,2.7,4.2c0,2.8-1.7,4.5-4.9,4.5c-3.2,0-4.9-1.7-4.9-4.5C198.7,110.9,200,109.1,201.4,108.6z M203.6,109.9
		c-0.3,0.1-1.4,0.9-1.4,2.3c0,1.2,0.6,1.8,1.4,1.8c0.7,0,1.4-0.5,1.4-1.8C205,110.7,203.9,109.9,203.6,109.9z M203.6,103.7
		c-0.8,0-1.3,0.6-1.3,1.7c0,1.3,1,1.9,1.3,2c0.2-0.1,1.2-0.7,1.2-2C204.9,104.3,204.4,103.7,203.6,103.7z"/>
</g>
<path class="st0" d="M105.9,110.2H6.1c-0.7,0-1.3-0.6-1.3-1.3s0.6-1.3,1.3-1.3h99.8c0.7,0,1.3,0.6,1.3,1.3S106.6,110.2,105.9,110.2z
	"/>
<path class="st0" d="M319.8,110.2H220c-0.7,0-1.3-0.6-1.3-1.3s0.6-1.3,1.3-1.3h99.8c0.7,0,1.3,0.6,1.3,1.3S320.5,110.2,319.8,110.2z
	"/>
</svg>
