<svg id="Layer_1" data-name="Layer 1" xmlns="http://www.w3.org/2000/svg" viewBox="0 0 555.05 97.6"><title>johnstone-logo</title><path d="M170.34,43.09c0,13.12-7.72,17.87-21.6,17.87-12.95,0-21.27-4.88-21.27-15.62v-.91h14.09c.27,4.76,1.74,7.5,7.31,7.5,4.36,0,7.38-2.07,7.38-8.91V15.76h14.09Z" transform="translate(-10.92 -14.6)" style="fill:#004990"/><path d="M199.35,14.6c18.42,0,26.17,9.88,26.17,23.18S217.77,61,199.35,61s-26.17-9.88-26.17-23.18S180.92,14.6,199.35,14.6Zm0,37.33c9.76,0,13-6.41,13-14.15s-3.23-14.15-13-14.15-13,6.41-13,14.15S189.58,51.93,199.35,51.93Z" transform="translate(-10.92 -14.6)" style="fill:#004990"/><path d="M229,15.76h12.81V33.26h21.66V15.76h12.81v44H263.45V42.29H241.79V59.8H229Z" transform="translate(-10.92 -14.6)" style="fill:#004990"/><path d="M279.85,15.76h16.84l20.07,31.72h.12V15.76h11.35v44h-17L291.32,28.08h-.12V59.8H279.85Z" transform="translate(-10.92 -14.6)" style="fill:#004990"/><path d="M343.86,45.53c.13,5.61,3,6.89,9.53,6.89,8.32,0,9.59-2.68,9.59-4.64,0-2.93-3.35-3.9-8.92-4.88l-6.91-1.22c-8-1.4-16.37-4.09-16.37-12.51,0-10.8,11-14.58,22.07-14.58,17.71,0,22.74,4.94,23.21,13.73H362.38c-.4-4.51-4.43-5.19-8.66-5.19-6.17,0-8.86,1.89-8.86,4.33,0,3,4.43,3.78,9.59,4.76L361,33.45c8.86,1.65,16.1,4.27,16.1,13C377.07,58.7,363.45,61,352.58,61c-19.52,0-22.81-7.63-22.81-15.43Z" transform="translate(-10.92 -14.6)" style="fill:#004990"/><path d="M392.81,24.79h-17v-9h46.73v9h-17v35H392.81Z" transform="translate(-10.92 -14.6)" style="fill:#004990"/><path d="M446.79,14.6c18.42,0,26.17,9.88,26.17,23.18S465.22,61,446.79,61s-26.17-9.88-26.17-23.18S428.37,14.6,446.79,14.6Zm0,37.33c9.76,0,13-6.41,13-14.15s-3.23-14.15-13-14.15-13,6.41-13,14.15S437,51.93,446.79,51.93Z" transform="translate(-10.92 -14.6)" style="fill:#004990"/><path d="M475.27,15.76h16.84l20.07,31.72h.12V15.76h11.35v44h-17L486.74,28.08h-.12V59.8H475.27Z" transform="translate(-10.92 -14.6)" style="fill:#004990"/><path d="M527.6,15.76h37.82v9h-25V33h23.67v9H540.41v8.78H566v9H527.6Z" transform="translate(-10.92 -14.6)" style="fill:#004990"/><path d="M144.71,96.53c.13,5.61,3,6.89,9.53,6.89,8.32,0,9.59-2.68,9.59-4.64,0-2.93-3.35-3.9-8.92-4.88L148,92.68c-8-1.4-16.37-4.09-16.37-12.51,0-10.8,11-14.58,22.07-14.58,17.71,0,22.74,4.94,23.21,13.73H163.23c-.4-4.51-4.43-5.19-8.66-5.19-6.17,0-8.86,1.89-8.86,4.33,0,3,4.43,3.78,9.59,4.76l6.51,1.22c8.86,1.65,16.1,4.27,16.1,13,0,12.26-13.62,14.52-24.49,14.52-19.52,0-22.81-7.63-22.81-15.43Z" transform="translate(-10.92 -14.6)" style="fill:#004990"/><path d="M228.77,90.67c0,15.25-8.48,21.29-23.79,21.29s-23.85-5.55-23.85-19.58V66.76h12.81V91.46c0,7.93,4,11.47,11,11.47,8.42,0,11-5.31,11-13.06V66.76h12.81Z" transform="translate(-10.92 -14.6)" style="fill:#004990"/><path d="M231.51,66.76h24.58c9.88,0,17.33,4.39,17.33,14.46,0,8.84-5.55,14-18.79,14H244.32V110.8H231.51Zm12.81,19.89h7.87c4.82,0,8.05-1.22,8.05-5.61,0-3.78-2.5-5.73-7.08-5.73h-8.85Z" transform="translate(-10.92 -14.6)" style="fill:#004990"/><path d="M275.43,66.76H300c9.88,0,17.33,4.39,17.33,14.46,0,8.84-5.55,14-18.79,14H288.24V110.8H275.43Zm12.81,19.89h7.87c4.82,0,8.05-1.22,8.05-5.61,0-3.78-2.5-5.73-7.08-5.73h-8.84Z" transform="translate(-10.92 -14.6)" style="fill:#004990"/><path d="M319.4,66.76h12.81v35H357.1v9H319.4Z" transform="translate(-10.92 -14.6)" style="fill:#004990"/><path d="M367.22,95.12l-21.8-28.37h17.31l12.41,18.79,12.28-18.79h15.7L381.31,95.12V110.8H367.22Z" transform="translate(-10.92 -14.6)" style="fill:#004990"/><rect y="0.85" width="101.03" height="96.16" style="fill:#004990"/><path d="M61.44,64.52" transform="translate(-10.92 -14.6)" style="fill:#231f20"/><polygon points="50.46 5.36 94.05 79.53 6.74 79.53 50.46 5.36" style="fill:#fff"/><path d="M49.11,49.78h7V79.19s0,5.35-3.67,6.2h-.92v2.77h4.59S65.2,87.79,69,84.3c2.55-2.32,4.42-4,4.45-7.1,0-2.66,0-32.95,0-32.95H49.11Z" transform="translate(-10.92 -14.6)" style="fill:#ef3e42"/><ellipse cx="31.09" cy="66.35" rx="10.57" ry="7.82" style="fill:#ef3e42"/><path d="M42,80.95" transform="translate(-10.92 -14.6)"/><path d="M19.42,97.94h3v6.83c0,2.29-2.09,3.12-4.07,3.12-2.42,0-4.07-.93-3.95-3.32h3c0,.59.16,1.43,1,1.43,1.16,0,1.1-1.29,1.11-1.46Z" transform="translate(-10.92 -14.6)" style="fill:#fff"/><path d="M23.13,102.81c0-3.21,2-5.07,5.55-5.07s5.55,1.86,5.55,5.07-2,5.07-5.55,5.07S23.13,106,23.13,102.81Zm5.55-3.18c-2,0-2.43,1.7-2.43,3.22s.42,3.14,2.43,3.14,2.44-1.7,2.44-3.14S30.7,99.62,28.68,99.62Z" transform="translate(-10.92 -14.6)" style="fill:#fff"/><path d="M34.95,107.68V97.94h3v3.86h3.64V97.94h3v9.74h-3v-4H37.92v4Z" transform="translate(-10.92 -14.6)" style="fill:#fff"/><path d="M45.59,97.94h4.16l3.59,7.26,0,0V97.94H56v9.74H51.93l-3.64-7.46h0v7.46H45.59Z" transform="translate(-10.92 -14.6)" style="fill:#fff"/><path d="M62.84,100.8a1,1,0,0,0-.39-.86,1.82,1.82,0,0,0-1.14-.31c-.68,0-1.28.41-1.28.89,0,.71,1,.94,1.74,1.13,1.8.42,4.41.58,4.41,3.21,0,2.05-2.23,3-4.71,3s-4.69-.66-4.74-3.3h3c0,.92.73,1.42,1.8,1.42.68,0,1.56-.32,1.56-1,0-1.32-2.2-1-4.53-2a2.44,2.44,0,0,1-1.62-2.37c.12-2.31,2.35-2.94,4.59-2.94s4.48.71,4.31,3.06Z" transform="translate(-10.92 -14.6)" style="fill:#fff"/><path d="M69.36,99.83H66.08V97.94h9.61v1.89H72.33v7.85h-3Z" transform="translate(-10.92 -14.6)" style="fill:#fff"/><path d="M75.58,102.81c0-3.21,2-5.07,5.55-5.07s5.55,1.86,5.55,5.07-2,5.07-5.55,5.07S75.58,106,75.58,102.81Zm5.55-3.18c-2,0-2.44,1.7-2.44,3.22s.42,3.14,2.44,3.14,2.44-1.7,2.44-3.14S83.16,99.62,81.14,99.62Z" transform="translate(-10.92 -14.6)" style="fill:#fff"/><path d="M87.39,97.94h4.16l3.59,7.26,0,0V97.94h2.67v9.74H93.73l-3.64-7.46h0v7.46H87.39Z" transform="translate(-10.92 -14.6)" style="fill:#fff"/><path d="M98.92,107.68V97.94h8.17v1.89h-5.2v2h4.78v1.89h-4.78v2.06h5.2v1.89Z" transform="translate(-10.92 -14.6)" style="fill:#fff"/><path d="M116,108.44a3.76,3.76,0,1,1,3.76,3.76A3.76,3.76,0,0,1,116,108.44Zm1,0a2.76,2.76,0,1,0,2.76-2.76A2.74,2.74,0,0,0,117,108.44Zm2.08,1.94h-.9v-4.1h2a2.26,2.26,0,0,1,1.1.19,1.23,1.23,0,0,1,.48,1.1c0,.75-.39,1-1.11,1.14l1,1.67h-1l-.9-1.67h-.59ZM120.2,108c.45,0,.61-.1.61-.51s-.42-.42-.81-.42h-.88V108Z" transform="translate(-10.92 -14.6)" style="fill:#004990"/></svg>