<?xml version="1.0" encoding="utf-8"?>
<!-- Generator: Adobe Illustrator 28.1.0, SVG Export Plug-In . SVG Version: 6.00 Build 0)  -->
<svg version="1.1" id="Layer_1" xmlns="http://www.w3.org/2000/svg" xmlns:xlink="http://www.w3.org/1999/xlink" x="0px" y="0px"
	 viewBox="0 0 314.5 127.5" style="enable-background:new 0 0 314.5 127.5;" xml:space="preserve">
<style type="text/css">
	.st0{fill:#45B8C4;}
	.st1{fill:#12113F;}
	.st2{fill-rule:evenodd;clip-rule:evenodd;fill:#45B8C4;}
	.st3{fill-rule:evenodd;clip-rule:evenodd;fill:#FFFFFF;}
</style>
<g>
	<path class="st0" d="M55,26L42.1,63h-7.8L21.5,26v37.1H4.1V4.3h24l10.1,30l10.1-30h24v58.8H55V26z"/>
	<path class="st0" d="M115.9,55.5h-22l-2.2,7.6H72.8L94,4.3h21.9l21.2,58.8h-18.9L115.9,55.5z M98.4,40.7h13.1L105,20L98.4,40.7z"/>
	<path class="st0" d="M144.7,19.8h-15.4V4.3h48.2v15.5h-15.3v43.3h-17.4V19.8H144.7z"/>
	<path class="st0" d="M176.2,33.7c0-18.1,13.6-30.4,31.2-30.4c15.5,0,23.1,9,26.5,17.1l-15,7.1c-1.5-4.6-5.9-8.5-11.5-8.5
		c-7.9,0-13.5,6.5-13.5,14.7s5.6,14.7,13.5,14.7c5.6,0,10.1-4,11.5-8.5l15,7c-3.4,7.8-11,17.2-26.5,17.2
		C189.9,64.1,176.2,51.8,176.2,33.7z"/>
	<path class="st0" d="M265.1,3.3c17.7,0,31.4,12.3,31.4,30.4s-13.7,30.4-31.4,30.4s-31.4-12.3-31.4-30.4
		C233.7,15.7,247.4,3.3,265.1,3.3z M265.1,19c-8.4,0-13.8,6.5-13.8,14.7s5.4,14.7,13.8,14.7s13.8-6.5,13.8-14.7
		C278.9,25.5,273.5,19,265.1,19z"/>
</g>
<g>
	<path class="st1" d="M21.5,93.2v31.5H4.1V66H22l20,29.6V66h17.4v58.8H42.7L21.5,93.2z"/>
	<path class="st1" d="M94.5,65c17.7,0,31.4,12.3,31.4,30.4s-13.7,30.4-31.4,30.4s-31.4-12.3-31.4-30.4C63,77.4,76.7,65,94.5,65z
		 M94.5,80.7c-8.4,0-13.8,6.5-13.8,14.7s5.4,14.7,13.8,14.7s13.8-6.5,13.8-14.7S102.8,80.7,94.5,80.7z"/>
	<path class="st1" d="M153.2,105.9h-6.3v18.9h-17.4V66h30.7c13.4,0,20.7,9.2,20.7,20.2c0,10.1-5.8,15.5-10.3,17.8l10.4,20.8h-19.8
		L153.2,105.9z M157.5,80.8h-10.6v10.3h10.6c2.9,0,5.7-1.9,5.7-5.2C163.2,82.8,160.5,80.8,157.5,80.8z"/>
	<path class="st1" d="M182.3,95.4c0-18.1,13.6-30.4,31.2-30.4c15.5,0,23.1,9,26.5,17.1l-15,7.1c-1.5-4.6-5.9-8.5-11.5-8.5
		c-7.9,0-13.5,6.5-13.5,14.7s5.6,14.7,13.5,14.7c5.6,0,10.1-4,11.5-8.5l15,7c-3.4,7.8-11,17.2-26.5,17.2
		C195.9,125.8,182.3,113.5,182.3,95.4z"/>
	<path class="st1" d="M278.9,117.2h-22.1l-2.2,7.6h-18.9L256.9,66h21.9l21.2,58.8h-18.9L278.9,117.2z M261.4,102.4h13.1L268,81.7
		L261.4,102.4z"/>
</g>
<path class="st2" d="M93.8,72.9c0,0,3-0.7,4.3-0.2s3.4,1.2,4,1.1c0.6-0.2,1.4-1.2-1.9-2S93.8,72.9,93.8,72.9 M85.8,70.8
	c0.7-1.5-0.8-2.3-3.4-1.5c-12.8,4.2-19.3,20.3-15.7,32.6c4.9,16.9,23.7,28.7,42.5,20.5c1.2-0.5,2.5-1.2,3.6-1.8
	c-20,7.4-39.3-11-36.8-26.7c1.1-6.8,4.1-6.6,8.5-9.5c1-0.7,0.3-1.7-1.4-1.1c-1.7,0.7-2.4,1.8-2.5,1s0.9-1.6,2.8-2.3
	c1.9-0.7,4.5-0.2,5.6-0.4c1.1-0.1,2.2-1.4-0.6-1.8c-2.8-0.4-6.7,2.2-7.6,3.1c-0.3,0.3-0.8,0.9-1.2,1.3c1.5-4.1,3.5-4.7,7.8-5.7
	c3.6-0.9,9.4,3,8.4,0s3.3,1.5,3.7,1.8c1.7,2.4,6.5,3.4,3.9,0c-2.7-3.4-4.1-1.8-4.6-2.8s0.3-0.6,1.1-0.2c0.9,0.4,2.4,0.4,0.8-1.4
	c-1.5-1.8-6-1.4-8.2-0.5c-1.6,0.6-2.4,0.9-2.3-0.2c0.1-1-0.7-1.2-1.5-1.7c1-0.4,1.6-0.9,1.4-1.6c-0.1-0.4-0.3-0.5-0.8-0.6
	C88,71,86.9,70.8,85.8,70.8 M86.6,69.8c0,0,2.9-1.7,4.3-1.7c1.4,0.1,3.8,0,4.3-0.4c0.6-0.4,1.1-1.7-2.4-1.3
	C89.4,66.9,86.6,69.8,86.6,69.8 M108.6,74.8c2.1,0.2,2.3-1.5,0.2-3.1c-2.1-1.6-4-1-4.1-0.9c0,0,0,0.2,0.6,0.5
	c0.7,0.4,0.1,0.6-0.8,1.8C103.5,74.5,106.5,74.6,108.6,74.8 M93.1,70.9c0,0,0.4-0.6,2-0.8c1.6-0.1,3,0.4,2.4-0.5s-2-0.3-3.3,0.3
	C92.9,70.5,93.1,70.9,93.1,70.9 M90.4,74.1c0,0,1.7-0.1,2.2-1s-0.9-0.6-1.6,0.1C90.3,73.9,90.4,74.1,90.4,74.1"/>
<path class="st3" d="M91.2,86.4c0,0,1.5-1.1,2.3-1.1s2-0.2,2.3-0.4c0.3-0.2,0.5-0.9-1.3-0.5C92.6,84.7,91.2,86.4,91.2,86.4
	 M125.8,99c-1.2,10-8.6,17.1-18,18.7c-13,2.3-29-8.2-27.7-22.8c0.3-3.2,2.3-6.9,5.3-8.1c1.3-0.5,2.5-0.1,1.9,1
	c-0.4,0.6-2.2,2.1-1.7,2.3c0.6,0,3.9-2.2,4-1.7s0.5,0.2,1.3-0.5c1-0.9,3.3-2.2,4.5-1.7s0.3,0.9-0.2,0.9s-1,0.2-0.6,0.5
	c0.5,0.4,1.9-1.6,3.9-0.5c2,1,1.7,1.5,0.8,1.7c-1.3,0.2-6.5-0.6-6.1-0.1c1.1,1.2-0.7,0.8-2.5,2.1c-2.2,1.6-3.6,3.3-3.6,4.6
	c0,1.3,0.5-0.2,0.8-0.9c0.3-0.6,1.9-2.8,3.5-3.3s1.2,0.4,0.7,0.7c-0.6,0.3-2,0.7-2.9,1.5s-1.3,1.4-1.1,1.8c0.2,0.4,0.3-0.4,1.1-1.1
	c0.8-0.7,1.3-0.4,0.9,0.2s-1.8,1.1-1.9,2.1C88,97.4,90,97,90.6,98s-0.2,0.9-0.7,1.7C85.1,109.3,115.5,123.6,125.8,99 M90.5,85.5
	c0,0,0.1-0.4,0.9-0.8s1.7-0.5,1.2-0.8s-1.1,0.3-1.7,0.9C90.3,85.4,90.5,85.5,90.5,85.5 M89.6,87.8c0,0,0.9-0.5,1-1
	c0.1-0.6-0.6-0.1-0.8,0.4C89.5,87.7,89.6,87.8,89.6,87.8"/>
<g>
	<path class="st1" d="M301.8,120.2h-1.7v-0.7h4.1v0.7h-1.6v4.6h-0.8V120.2z"/>
	<path class="st1" d="M309.6,120.6l-1.7,4.2h-0.3l-1.7-4.2v4.2h-0.8v-5.3h1.1l1.6,3.8l1.6-3.8h1.1v5.3h-0.8v-4.2H309.6z"/>
</g>
</svg>

