<svg xmlns="http://www.w3.org/2000/svg" width="204" height="47" viewBox="0 0 204 47"><g fill="none" fill-rule="evenodd"><path fill="#0082CA" d="M9.486,46.745 L204,46.745 L204,0 L9.486,0 L9.486,46.745 Z M10.336,45.897 L203.153,45.897 L203.153,0.849 L10.336,0.849 L10.336,45.897 Z"/><polygon fill="#001F60" points="0 42.518 83.102 42.518 83.102 4.228 0 4.228"/><g transform="translate(3.43 10.557)"><path fill="#0082CA" d="M100.175 24.2542C101.504 24.2542 103.863 22.7162 103.863 20.4162L103.863 10.8632C103.863 9.5762 102.851 9.0022 102.387 8.8792 101.557 8.6592 99.689 8.2882 98.338 8.1572L95.024 7.8502C92.537 7.6462 91.433 7.4402 91.433 6.8292L91.433 2.8502C91.433 2.4052 91.844 1.9072 92.377 1.9072L94.631 1.9072C95.121 1.9072 95.575 2.3392 95.575 2.8502L95.575 5.3982 103.863 5.3982 103.863 3.7932C103.863 2.7642 102.682.0152 99.719.0152L86.774.0032C85.76.0032 83.145 1.3152 83.145 4.1592L83.145 6.7562C83.145 7.5202 83.599 8.3342 84.443 8.6782 85.425 9.0782 86.377 9.2182 87.84 9.3492L93.506 9.9262C94.751 9.9842 95.575 10.7862 95.575 12.1292L95.575 21.4662C95.575 21.8652 95.185 22.4282 94.54 22.4282L92.47 22.4282C91.788 22.4282 91.436 21.8422 91.436 21.3932L91.436 18.0032 83.146 18.0032 83.146 20.4162C83.146 22.2222 85.017 24.2542 86.974 24.2542L100.175 24.2542ZM165.2098 7.1991C165.2098 5.5411 163.9048 3.9581 161.9688 3.9581L155.6168 3.9511C154.9618 3.9511 154.5888 4.4061 154.5888 4.8971L154.5888 3.9511 148.2108 3.9511 148.2108 31.9701 154.5888 31.9701 154.5888 23.3431C154.5888 23.7441 154.9148 24.2611 155.5068 24.2611L161.9068 24.2541C163.8368 24.2541 165.2098 22.6951 165.2098 21.0131L165.2098 7.1991ZM154.5888 21.3831 154.5888 6.8581C154.5888 6.3491 154.9918 5.8241 155.6228 5.8241L157.6928 5.8241C158.3668 5.8241 158.7278 6.3361 158.7278 6.8581L158.7278 21.3831C158.7278 21.9031 158.2988 22.4171 157.6928 22.4171L155.6228 22.4171C154.9568 22.4171 154.5888 21.8411 154.5888 21.3831L154.5888 21.3831ZM144.7371 7.1991C144.7371 5.5411 143.4321 3.9581 141.4961 3.9581L135.0471 3.9511C134.5561 3.9511 134.1161 4.3521 134.1161 4.8921L134.1161 3.9511 127.7381 3.9511 127.7381 31.9701 134.1161 31.9701 134.1161 23.3391C134.1161 23.9381 134.6391 24.2611 135.0371 24.2611L141.4341 24.2541C143.3641 24.2541 144.7371 22.6951 144.7371 21.0131L144.7371 7.1991ZM134.1161 21.3831 134.1161 6.8581C134.1161 6.3491 134.5191 5.8241 135.1501 5.8241L137.2201 5.8241C137.8941 5.8241 138.2551 6.3361 138.2551 6.8581L138.2551 21.3831C138.2551 21.9031 137.8261 22.4171 137.2201 22.4171L135.1501 22.4171C134.4841 22.4171 134.1161 21.8411 134.1161 21.3831L134.1161 21.3831Z"/><polygon fill="#0082CA" points="168.69 24.248 175.621 24.248 175.621 0 168.69 0"/><path fill="#0082CA" d="M196.2469,3.9528 L189.7649,3.9528 L189.7649,21.3828 C189.7649,21.9068 189.3339,22.4178 188.7299,22.4178 L186.6599,22.4178 C185.9999,22.4178 185.6179,21.8568 185.6179,21.3828 L185.6179,3.9528 L179.0959,3.9528 L179.0959,20.7218 C179.0959,22.7348 180.3659,24.2568 182.3839,24.2568 L188.8429,24.2568 C189.2919,24.2568 189.7649,23.9028 189.7649,23.3328 L189.7649,29.0268 C189.7649,29.0268 189.7639,29.5818 189.3339,29.8648 C189.0019,30.0798 188.7539,30.0648 188.7539,30.0648 L186.6599,30.0638 C186.5109,30.0638 186.1309,30.0128 185.8619,29.6828 C185.5919,29.3528 185.6259,29.0038 185.6259,29.0038 L179.1429,29.0038 C179.1429,30.4018 180.5739,31.9608 182.3839,31.9608 L193.0059,31.9608 C194.4339,31.9608 196.2469,30.8998 196.2469,28.7198 L196.2469,3.9528 Z"/><path fill="#FEFEFE" d="M9.386 1.9023C9.815 1.9023 10.329 2.2213 10.329 2.8453L10.329 8.7053C10.329 9.1583 9.965 9.6483 9.386 9.6483L6.997 9.6483 6.997 1.9023 9.386 1.9023ZM17.326 3.7023C17.326 2.9593 16.935 1.8113 15.557.9403 14.09.0123 11.405.0152999378 8.44.0152999378L0 .0152999378 0 24.2483 6.997 24.2483 6.997 11.4443 8.997 11.4443C11.598 11.4443 13.479 11.3483 14.892 10.9083 16.616 10.3713 17.295 8.7273 17.326 7.7763L17.326 3.7023ZM55.5557 24.2481C57.2447 24.2481 58.9037 22.9331 58.9037 20.8041L58.9037 17.9541 52.2057 17.9541 52.2057 21.4131C52.2047 21.5791 52.0837 22.2861 51.3337 22.3611L49.4477 22.3571C48.9127 22.3571 48.5767 21.8601 48.5767 21.4131L48.5767 2.8681C48.5767 2.2921 49.0627 1.9251 49.5197 1.9251L51.2617 1.9251C51.6717 1.9251 52.2057 2.2301 52.2057 2.8681L52.2057 6.2501 58.9037 6.2501 58.9037 3.7021C58.9037 2.4021 58.1887.0031 54.5477.0031L46.6487.0031C42.1917.0031 41.5797 2.4201 41.5797 3.7021L41.5797 20.8041C41.5797 22.3571 42.9137 24.2481 45.0777 24.2481L55.5557 24.2481Z"/><polygon fill="#FEFEFE" points="69.374 1.902 76.228 1.902 76.228 .015 62.377 .015 62.377 24.248 76.228 24.248 76.228 22.355 69.374 22.355 69.374 11.444 76.228 11.444 76.228 9.648 69.374 9.648"/><path fill="#0082CA" d="M160.901 31.6055C160.409 31.8675 159.789 31.9865 159.217 31.9865 157.367 31.9865 156.088 30.7085 156.088 29.0325 156.088 27.3645 157.367 26.0615 159.217 26.0615 159.797 26.0615 160.361 26.1965 160.814 26.4195L160.814 27.6975C160.393 27.4115 159.813 27.1975 159.225 27.1975 158.113 27.1975 157.351 27.9755 157.351 29.0165 157.351 30.0405 158.09 30.8505 159.273 30.8505 159.869 30.8505 160.424 30.6445 160.901 30.3185L160.901 31.6055ZM166.0874 29.0244C166.0874 28.0074 165.3404 27.2054 164.3484 27.2054 163.3554 27.2054 162.6084 28.0074 162.6084 29.0244 162.6084 30.0414 163.3554 30.8434 164.3484 30.8434 165.3404 30.8434 166.0874 30.0414 166.0874 29.0244M161.3454 29.0244C161.3454 27.3484 162.6404 26.0624 164.3484 26.0624 166.0554 26.0624 167.3504 27.3484 167.3504 29.0244 167.3504 30.7004 166.0554 31.9864 164.3484 31.9864 162.6404 31.9864 161.3454 30.7004 161.3454 29.0244M169.8996 28.6827C170.2406 28.6827 170.5036 28.6427 170.6936 28.5477 170.9086 28.4367 171.0196 28.2457 171.0196 27.9677 171.0196 27.6977 170.9236 27.5237 170.6936 27.4037 170.4956 27.3007 170.1856 27.2527 169.7486 27.2527L169.2646 27.2527 169.2646 28.6827 169.8996 28.6827ZM168.0016 26.1497 169.8046 26.1497C170.4876 26.1497 171.1306 26.2447 171.5916 26.5307 172.0126 26.7927 172.2826 27.2217 172.2826 27.8807 172.2826 28.6197 171.8776 29.2227 171.1146 29.4687L172.7346 31.8997 171.2816 31.8997 169.8286 29.6277 169.2646 29.6277 169.2646 31.8997 168.0016 31.8997 168.0016 26.1497ZM174.7683 28.8178C175.2683 28.8178 175.5543 28.7938 175.7693 28.6748 175.9993 28.5478 176.1263 28.3338 176.1263 28.0478 176.1263 27.7218 175.9833 27.4918 175.7213 27.3728 175.4913 27.2688 175.1813 27.2528 174.7363 27.2528L174.3073 27.2528 174.3073 28.8178 174.7683 28.8178ZM173.0443 26.1488 174.7523 26.1488C175.4353 26.1488 176.0073 26.2128 176.4603 26.4508 176.9603 26.7128 177.3893 27.2058 177.3893 27.9838 177.3893 28.6908 177.0473 29.1988 176.5633 29.4848 176.1183 29.7468 175.5463 29.8428 174.7043 29.8428L174.3073 29.8428 174.3073 31.8998 173.0443 31.8998 173.0443 26.1488ZM177.3328 30.5572C177.7298 30.5572 178.0638 30.8752 178.0638 31.2722 178.0638 31.6692 177.7298 31.9872 177.3328 31.9872 176.9358 31.9872 176.6018 31.6692 176.6018 31.2722 176.6018 30.8752 176.9358 30.5572 177.3328 30.5572"/><path fill="#FEFEFE" d="M20.7913,3.7023 L20.7913,24.2483 L27.7863,24.2483 L27.7863,11.4443 L31.1183,11.4443 L31.1183,24.2483 L38.1133,24.2483 L38.1133,3.7023 C38.1133,2.4083 37.5773,1.7033 37.1353,1.2603 C35.8403,-0.0347 34.4673,0.0153 29.4523,0.0153 C24.4373,0.0153 23.0223,0.0203 21.8043,1.2383 C21.8043,1.2383 20.7913,2.1573 20.7913,3.7023 L20.7913,3.7023 Z M31.1183,9.6483 L27.7863,9.6483 L27.7863,2.8453 C27.7863,2.2893 28.2633,1.9023 28.7373,1.9023 L30.1803,1.9023 C30.8273,1.9023 31.1183,2.4703 31.1183,2.7393 L31.1183,9.6483 Z"/><path fill="#0082CA" d="M117.864,3.9509 L117.864,21.3929 C117.864,21.9459 117.443,22.4259 116.832,22.4259 L114.769,22.4259 C114.133,22.4259 113.737,21.9059 113.737,21.3829 L113.734,3.9509 L107.337,3.9509 L107.339,21.0839 C107.339,22.8919 108.828,24.2829 110.535,24.2829 L116.931,24.2829 C117.451,24.2829 117.864,23.8349 117.864,23.3379 L117.864,24.2529 L124.262,24.2529 L124.262,3.9509 L117.864,3.9509 Z"/></g></g></svg>